<svg height='100px' width='100px'  fill="#000000" xmlns="http://www.w3.org/2000/svg" xmlns:xlink="http://www.w3.org/1999/xlink" version="1.1" x="0px" y="0px" viewBox="0 0 100 100" style="enable-background:new 0 0 100 100;" xml:space="preserve"><path d="M52.5,7c0.1-0.7,0.9-1.2,1.7-1.1s1.6,0.2,1.5,1.4c-0.1,1.3-0.9,1.2-1.7,1.1C53,8.3,52.4,7.6,52.5,7z M52.8,10.4  c-0.1,0.7,0.6,1.3,1.5,1.4s1.6,0.2,1.7-1.1c0.1-1.3-0.6-1.3-1.5-1.4S52.9,9.7,52.8,10.4z M53.1,13.9c-0.1,0.7,0.6,1.3,1.5,1.4  s1.6,0.2,1.7-1.1s-0.6-1.3-1.5-1.4C54,12.8,53.2,13.2,53.1,13.9z M45.8,10.4c0.9-0.1,1.5-0.7,1.5-1.4c-0.1-0.7-0.9-1.2-1.7-1.1  C44.6,8,43.9,8.1,44,9.3S44.9,10.5,45.8,10.4z M45.4,13.9c0.9-0.1,1.5-0.7,1.5-1.4c-0.1-0.7-0.9-1.2-1.7-1.1s-1.6,0.2-1.5,1.4  C43.8,14.1,44.5,14,45.4,13.9z M46.1,6.9c0.9-0.1,1.5-0.7,1.5-1.4c-0.1-0.7-0.9-1.2-1.7-1.1c-0.9,0.1-1.6,0.2-1.5,1.4  C44.5,7.1,45.2,7,46.1,6.9z M71.2,81.3c0,8.8-5.1,16.2-21.2,16.2s-21.2-7.2-21.2-16.2s10-13.5,10-18.5s-4.8-7-4.8-11.2  s5.7-7.8,13.2-8.6V22.5L45,20.4l2.3-2.3l0.9-15.6h3.7l0.9,15.6l2.3,2.3l-2.1,2.1v22.5c0.1,2.8,2.5,5.1,5.3,5.1c2.3,0,4.2-1.5,5-3.6  c1.8,1.4,2.9,2.2,2.9,5c0,2.8-4.8,6.7-4.8,11.2S71.2,72.6,71.2,81.3z M55.8,76c0-0.9-0.8-1.7-1.7-1.7h-8.2c-0.9,0-1.7,0.8-1.7,1.7  v0.4c0,0.9,0.8,1.7,1.7,1.7h8.2c0.9,0,1.7-0.8,1.7-1.7V76z M56,63.3c0-3.3-2.7-6-6-6s-6,2.7-6,6s2.7,6,6,6S56,66.6,56,63.3z"></path></svg>