<svg height='100px' width='100px'  fill="#1A1A1A" xmlns="http://www.w3.org/2000/svg" viewBox="0 0 64 64" x="0px" y="0px"><title>Diamond</title><g><path d="M61.9688,32.3093c.0059-.0377.0076-.0745.0114-.1125A1.9562,1.9562,0,0,0,62,32a1.997,1.997,0,0,0-.0348-.3452c-.0023-.0129-.0014-.0257-.0039-.0386a1.9718,1.9718,0,0,0-.2046-.5533c-.0094-.0177-.01-.0376-.02-.0551l-8-14c-.01-.0172-.025-.03-.0353-.0463a1.9733,1.9733,0,0,0-.2583-.3389c-.0123-.0129-.0218-.0285-.0345-.0411a2.0034,2.0034,0,0,0-.3272-.2641c-.0151-.01-.0316-.0146-.0469-.0239-.0371-.0225-.0766-.0386-.1151-.0587a1.9779,1.9779,0,0,0-.3294-.1376c-.0431-.0134-.0854-.0254-.13-.0359a1.976,1.976,0,0,0-.4067-.0542C52.0353,16.0067,52.0183,16,52,16H12c-.0183,0-.0353.0067-.0535.0071a1.98,1.98,0,0,0-.4066.0541c-.0441.01-.0865.0226-.13.0359a1.98,1.98,0,0,0-.3293.1376c-.0385.02-.0779.0362-.1151.0587-.0153.0093-.0318.0142-.0469.0239a2.0034,2.0034,0,0,0-.3272.2641c-.0127.0126-.0222.0281-.0345.0411a1.9733,1.9733,0,0,0-.2583.3389c-.01.0168-.0255.0292-.0353.0463l-8,14c-.01.0175-.011.0374-.02.0551a1.9718,1.9718,0,0,0-.2046.5533c-.0025.0129-.0016.0257-.0039.0386A1.997,1.997,0,0,0,2,32a1.9562,1.9562,0,0,0,.02.1968c.0038.038.0054.0748.0114.1125a1.9745,1.9745,0,0,0,.1622.5358c.0132.0284.03.054.0444.0818a2.0015,2.0015,0,0,0,.3494.4884L30.5859,61.4141a1.9955,1.9955,0,0,0,.2542.2076c.0157.0112.0284.0256.0445.0364a1.9706,1.9706,0,0,0,.47.2272c.038.013.0758.0233.1147.034a1.7843,1.7843,0,0,0,1.0612,0c.039-.0108.0769-.0211.115-.0341a1.9675,1.9675,0,0,0,.47-.2271c.0161-.0108.0289-.0251.0446-.0364a1.99,1.99,0,0,0,.2542-.2076L61.4128,33.4153a2.0015,2.0015,0,0,0,.3494-.4884c.0146-.0278.0312-.0535.0444-.0818A1.9745,1.9745,0,0,0,61.9688,32.3093ZM12.1,21.8546,17.3367,30H7.4461ZM32.9081,20l6.4286,10H24.6633l6.4286-10Zm4.7551,0H48.3367L43,28.3018Zm2.4023,14L32,54.53,23.9344,34ZM21,28.3018,15.6633,20H26.3367ZM19.637,34l6.994,17.8029L8.8281,34Zm24.726,0H55.1719L37.369,51.8029Zm2.3-4L51.9,21.8546,56.5539,30Z"></path><path d="M32,12a2,2,0,0,0,2-2V4a2,2,0,0,0-4,0v6A2,2,0,0,0,32,12Z"></path><path d="M20.5859,11.4141a2,2,0,0,0,2.8281-2.8281l-3-3a2,2,0,0,0-2.8281,2.8281Z"></path><path d="M42,12a1.9935,1.9935,0,0,0,1.4141-.5859l3-3a2,2,0,0,0-2.8281-2.8281l-3,3A2,2,0,0,0,42,12Z"></path></g></svg>