<svg height='100px' width='100px'  fill="#1A1A1A" xmlns="http://www.w3.org/2000/svg" xmlns:xlink="http://www.w3.org/1999/xlink" version="1.1" x="0px" y="0px" viewBox="0 0 100 100" enable-background="new 0 0 100 100" xml:space="preserve"><path d="M49.7,70.1c-4.3,0-8.6-1.1-12.6-3.4c-5.9-3.4-10.1-8.8-11.9-15.4s-0.9-13.4,2.5-19.3c7-12.1,22.5-16.3,34.7-9.3  c5.9,3.4,10.1,8.8,11.9,15.4s0.9,13.4-2.5,19.3l0,0C67.1,65.5,58.5,70.1,49.7,70.1z M49.8,23.6c-7.3,0-14.5,3.8-18.4,10.6  c-2.8,4.9-3.6,10.6-2.1,16.1c1.5,5.5,5,10,9.9,12.8c10.1,5.8,23.1,2.3,28.9-7.8l0,0c2.8-4.9,3.6-10.6,2.1-16.1  c-1.5-5.5-5-10-9.9-12.8C57,24.5,53.4,23.6,49.8,23.6z M69.9,56.3L69.9,56.3L69.9,56.3z"></path><path d="M62.2,83.6c-0.8,0-1.5-0.4-1.8-1.1L53,69.7c-0.6-1-0.2-2.3,0.8-2.9c1-0.6,2.3-0.2,2.9,0.8l5.3,9.3l2.2-4.9  c0.4-0.9,1.3-1.4,2.2-1.2l4.7,0.7l-5.2-9.2c-0.6-1-0.2-2.3,0.8-2.9c1-0.6,2.3-0.2,2.9,0.8L77,73.1c0.4,0.7,0.4,1.6-0.1,2.2  c-0.5,0.7-1.2,1-2,0.9l-7.4-1.1l-3.3,7.2C63.8,83.1,63.1,83.6,62.2,83.6C62.3,83.6,62.3,83.6,62.2,83.6z"></path><path d="M37.2,83.6C37.1,83.6,37.1,83.6,37.2,83.6c-0.9,0-1.6-0.5-1.9-1.2L32,75.6l-7.5,0.6c-0.8,0.1-1.5-0.3-1.9-1  c-0.4-0.7-0.4-1.5,0-2.2l7.4-12.9c0.6-1,1.9-1.4,2.9-0.8c1,0.6,1.4,1.9,0.8,2.9l-5.4,9.4l5-0.4c0.9-0.1,1.7,0.4,2.1,1.2l2.2,4.5  l5.4-9.4c0.6-1,1.9-1.4,2.9-0.8c1,0.6,1.4,1.9,0.8,2.9L39,82.6C38.6,83.2,37.9,83.6,37.2,83.6z"></path><path d="M42.7,57.8c-0.7,0-1.4-0.2-2-0.6c-1.2-0.9-1.7-2.3-1.2-3.7l1.9-6l-5.1-3.7c-1.2-0.9-1.7-2.3-1.2-3.7s1.7-2.3,3.2-2.3h6.3  l1.9-6c0.4-1.4,1.7-2.3,3.2-2.3c1.4,0,2.7,0.9,3.2,2.3l1.9,6h6.3c1.4,0,2.7,0.9,3.2,2.3s0,2.9-1.2,3.7L58,47.5l1.9,6  c0.4,1.4,0,2.9-1.2,3.7c-1.2,0.9-2.7,0.9-3.9,0l-5.1-3.7l-5.1,3.7C44.1,57.6,43.4,57.8,42.7,57.8z M49.7,49.2c0.4,0,0.8,0.1,1.1,0.4  l5,3.6l-1.9-5.8c-0.3-0.8,0-1.7,0.7-2.1l5-3.6h-6.1c-0.8,0-1.6-0.5-1.8-1.3l-1.9-5.8l-1.9,5.8c-0.3,0.8-1,1.3-1.8,1.3h-6.1l5,3.6  c0.7,0.5,1,1.4,0.7,2.1l-1.9,5.8l5-3.6C49,49.4,49.4,49.2,49.7,49.2z M61.1,41.6L61.1,41.6L61.1,41.6z"></path></svg>