<svg height='100px' width='100px'  fill="#1A1A1A" xmlns:x="http://ns.adobe.com/Extensibility/1.0/" xmlns:i="http://ns.adobe.com/AdobeIllustrator/10.0/" xmlns:graph="http://ns.adobe.com/Graphs/1.0/" xmlns="http://www.w3.org/2000/svg" xmlns:xlink="http://www.w3.org/1999/xlink" version="1.1" x="0px" y="0px" viewBox="0 0 100 100" style="enable-background:new 0 0 100 100;" xml:space="preserve"><g><g i:extraneous="self"><g><path d="M5273.1,2400.1v-2c0-2.8-5-4-9.7-4s-9.7,1.3-9.7,4v2c0,1.8,0.7,3.6,2,4.9l5,4.9c0.3,0.3,0.4,0.6,0.4,1v6.4     c0,0.4,0.2,0.7,0.6,0.8l2.9,0.9c0.5,0.1,1-0.2,1-0.8v-7.2c0-0.4,0.2-0.7,0.4-1l5.1-5C5272.4,2403.7,5273.1,2401.9,5273.1,2400.1z      M5263.4,2400c-4.8,0-7.4-1.3-7.5-1.8v0c0.1-0.5,2.7-1.8,7.5-1.8c4.8,0,7.3,1.3,7.5,1.8C5270.7,2398.7,5268.2,2400,5263.4,2400z"></path><path d="M5268.4,2410.3c-0.6,0-1,0.4-1,1c0,0.6,0.4,1,1,1h4.3c0.6,0,1-0.4,1-1c0-0.6-0.4-1-1-1H5268.4z"></path><path d="M5272.7,2413.7h-4.3c-0.6,0-1,0.4-1,1c0,0.6,0.4,1,1,1h4.3c0.6,0,1-0.4,1-1C5273.7,2414.1,5273.3,2413.7,5272.7,2413.7z"></path><path d="M5272.7,2417h-4.3c-0.6,0-1,0.4-1,1c0,0.6,0.4,1,1,1h4.3c0.6,0,1-0.4,1-1C5273.7,2417.5,5273.3,2417,5272.7,2417z"></path></g><g><path d="M24.1,52.9h-21c-0.3,0-0.6,0.3-0.6,0.6v3.6c0,0.3,0.3,0.6,0.6,0.6h21c0.3,0,0.6-0.3,0.6-0.6v-3.6     C24.7,53.2,24.4,52.9,24.1,52.9z"></path><path d="M24.1,43.3H9.2c-0.3,0-0.6,0.3-0.6,0.6v3.6c0,0.3,0.3,0.6,0.6,0.6h14.9c0.3,0,0.6-0.3,0.6-0.6v-3.6     C24.7,43.5,24.4,43.3,24.1,43.3z"></path><path d="M24.1,33.6h-8.9c-0.3,0-0.6,0.3-0.6,0.6v3.6c0,0.3,0.3,0.6,0.6,0.6h8.9c0.3,0,0.6-0.3,0.6-0.6v-3.6     C24.7,33.9,24.4,33.6,24.1,33.6z"></path><path d="M96.6,49.3l-4.4-13.3c-0.4-1.2-1.6-2.1-2.9-2.1H75.7v-6.4c0-0.8-0.6-1.4-1.3-1.4h-43c-0.7,0-1.3,0.6-1.3,1.4v36.4     c0,0.7,0.6,1.3,1.3,1.3H38c0,0,0,0,0,0c0,4.8,3.9,8.6,8.6,8.6s8.6-3.9,8.6-8.6c0,0,0,0,0,0h17.1c0,0,0,0,0,0     c0,4.8,3.9,8.6,8.6,8.6s8.6-3.9,8.6-8.6c0,0,0,0,0,0H96c0.8,0,1.5-0.7,1.5-1.5v-8.6C97.5,53.1,97.2,51.2,96.6,49.3z M46.6,69.3     c-2.2,0-4.1-1.8-4.1-4.1c0-2.2,1.8-4.1,4.1-4.1c2.2,0,4.1,1.8,4.1,4.1C50.7,67.5,48.9,69.3,46.6,69.3z M81,69.3     c-2.2,0-4.1-1.8-4.1-4.1c0-2.2,1.8-4.1,4.1-4.1S85,63,85,65.2C85,67.5,83.2,69.3,81,69.3z M90.4,47.6H77c-0.7,0-1.2-0.5-1.2-1.2     v-6.7c0-0.7,0.5-1.2,1.2-1.2h10.3c0.5,0,1,0.3,1.2,0.8l2.5,7.5C91.1,47.2,90.8,47.6,90.4,47.6z"></path></g></g></g></svg>